<svg width="50" height="50" viewBox="0 0 50 50" fill="none" xmlns="http://www.w3.org/2000/svg">
<path d="M8.4298 11.575C8.4298 11.955 8.5248 12.29 8.7148 12.58C8.9048 12.86 9.1348 13.105 9.4048 13.315C9.6748 13.515 10.0498 13.76 10.5298 14.05C11.0298 14.36 11.4248 14.63 11.7148 14.86C12.0148 15.08 12.2698 15.355 12.4798 15.685C12.6898 16.015 12.7948 16.405 12.7948 16.855C12.7948 17.345 12.6648 17.79 12.4048 18.19C12.1548 18.58 11.7898 18.89 11.3098 19.12C10.8398 19.34 10.2898 19.45 9.6598 19.45C9.2598 19.45 8.8648 19.4 8.4748 19.3C8.0848 19.21 7.7448 19.075 7.4548 18.895C7.4048 18.865 7.3698 18.83 7.3498 18.79C7.3298 18.75 7.3198 18.69 7.3198 18.61L7.1698 16.465C7.1598 16.425 7.1798 16.4 7.2298 16.39C7.2898 16.38 7.3248 16.395 7.3348 16.435C7.5748 17.195 7.9098 17.84 8.3398 18.37C8.7698 18.9 9.3298 19.165 10.0198 19.165C10.4898 19.165 10.8848 19.04 11.2048 18.79C11.5248 18.53 11.6848 18.11 11.6848 17.53C11.6848 17.09 11.5848 16.705 11.3848 16.375C11.1848 16.045 10.9398 15.77 10.6498 15.55C10.3598 15.32 9.9748 15.06 9.4948 14.77C9.0248 14.47 8.6498 14.215 8.3698 14.005C8.0998 13.785 7.8698 13.52 7.6798 13.21C7.4898 12.89 7.3948 12.52 7.3948 12.1C7.3948 11.59 7.5298 11.155 7.7998 10.795C8.0798 10.435 8.4398 10.17 8.8798 9.99998C9.3298 9.81998 9.79981 9.72998 10.2898 9.72998C10.9498 9.72998 11.5548 9.84498 12.1048 10.075C12.2548 10.145 12.3298 10.235 12.3298 10.345L12.4048 12.22C12.4048 12.26 12.3748 12.285 12.3148 12.295C12.2648 12.295 12.2348 12.275 12.2248 12.235C12.1148 11.695 11.8798 11.185 11.5198 10.705C11.1698 10.225 10.6648 9.98498 10.0048 9.98498C9.5048 9.98498 9.1148 10.135 8.8348 10.435C8.5648 10.735 8.4298 11.115 8.4298 11.575Z" fill="black"/>
<path d="M22.7252 18.055C22.7252 18.365 22.7502 18.59 22.8002 18.73C22.8602 18.87 22.9702 18.965 23.1302 19.015C23.3002 19.065 23.5702 19.09 23.9402 19.09C23.9602 19.09 23.9702 19.12 23.9702 19.18C23.9702 19.24 23.9602 19.27 23.9402 19.27C23.6202 19.27 23.3702 19.265 23.1902 19.255L22.1102 19.24L21.0602 19.255C20.8702 19.265 20.6102 19.27 20.2802 19.27C20.2602 19.27 20.2502 19.24 20.2502 19.18C20.2502 19.12 20.2602 19.09 20.2802 19.09C20.6402 19.09 20.9052 19.065 21.0752 19.015C21.2452 18.965 21.3602 18.87 21.4202 18.73C21.4902 18.58 21.5252 18.355 21.5252 18.055V11.11C21.5252 10.81 21.4902 10.59 21.4202 10.45C21.3602 10.31 21.2452 10.215 21.0752 10.165C20.9052 10.105 20.6402 10.075 20.2802 10.075C20.2602 10.075 20.2502 10.045 20.2502 9.98498C20.2502 9.92498 20.2602 9.89498 20.2802 9.89498L21.0602 9.90998C21.5002 9.92998 21.8502 9.93998 22.1102 9.93998C22.4002 9.93998 22.7652 9.92998 23.2052 9.90998L23.9402 9.89498C23.9602 9.89498 23.9702 9.92498 23.9702 9.98498C23.9702 10.045 23.9602 10.075 23.9402 10.075C23.5802 10.075 23.3152 10.105 23.1452 10.165C22.9852 10.225 22.8752 10.33 22.8152 10.48C22.7552 10.62 22.7252 10.84 22.7252 11.14V18.055Z" fill="black"/>
<path d="M32.5646 10.24L32.9396 10.27L32.7896 17.56C32.7796 18.08 32.8746 18.465 33.0746 18.715C33.2746 18.965 33.5996 19.09 34.0496 19.09C34.0796 19.09 34.0946 19.12 34.0946 19.18C34.0946 19.24 34.0796 19.27 34.0496 19.27C33.7796 19.27 33.5696 19.265 33.4196 19.255L32.5946 19.24L31.7696 19.255C31.6296 19.265 31.4246 19.27 31.1546 19.27C31.1346 19.27 31.1246 19.24 31.1246 19.18C31.1246 19.12 31.1346 19.09 31.1546 19.09C31.9846 19.09 32.4046 18.58 32.4146 17.56L32.5646 10.24ZM42.9146 19.09C42.9346 19.09 42.9446 19.12 42.9446 19.18C42.9446 19.24 42.9346 19.27 42.9146 19.27C42.5846 19.27 42.3246 19.265 42.1346 19.255L41.0846 19.24L40.0796 19.255C39.9096 19.265 39.6746 19.27 39.3746 19.27C39.3546 19.27 39.3446 19.24 39.3446 19.18C39.3446 19.12 39.3546 19.09 39.3746 19.09C39.7146 19.09 39.9646 19.065 40.1246 19.015C40.2846 18.955 40.3896 18.855 40.4396 18.715C40.4896 18.575 40.5046 18.355 40.4846 18.055L40.1846 10.99L40.7696 10.15L36.8846 19.165C36.8646 19.205 36.8246 19.225 36.7646 19.225C36.7046 19.225 36.6646 19.205 36.6446 19.165L32.7296 11.14C32.5496 10.77 32.3396 10.5 32.0996 10.33C31.8596 10.16 31.5796 10.075 31.2596 10.075C31.2396 10.075 31.2296 10.045 31.2296 9.98498C31.2296 9.92498 31.2396 9.89498 31.2596 9.89498L31.8596 9.90998C31.9796 9.91998 32.1346 9.92498 32.3246 9.92498C32.5446 9.92498 32.7246 9.91998 32.8646 9.90998C33.0046 9.89998 33.1146 9.89498 33.1946 9.89498C33.3246 9.89498 33.4296 9.93998 33.5096 10.03C33.5896 10.12 33.7146 10.335 33.8846 10.675L37.2896 17.59L36.7346 18.55L40.3496 10.27C40.4496 10.02 40.5996 9.89498 40.7996 9.89498C40.8596 9.89498 40.9396 9.89998 41.0396 9.90998C41.1396 9.91998 41.2696 9.92498 41.4296 9.92498L42.1946 9.90998C42.3146 9.89998 42.4896 9.89498 42.7196 9.89498C42.7396 9.89498 42.7496 9.92498 42.7496 9.98498C42.7496 10.045 42.7396 10.075 42.7196 10.075C42.2196 10.075 41.8646 10.155 41.6546 10.315C41.4446 10.475 41.3446 10.755 41.3546 11.155L41.6696 18.055C41.6896 18.365 41.7296 18.59 41.7896 18.73C41.8496 18.87 41.9596 18.965 42.1196 19.015C42.2896 19.065 42.5546 19.09 42.9146 19.09Z" fill="black"/>
<path d="M9.50066 38.995C9.50066 39.315 9.54066 39.55 9.62066 39.7C9.70066 39.84 9.85066 39.94 10.0707 40C10.3007 40.06 10.6657 40.09 11.1657 40.09C11.1957 40.09 11.2107 40.12 11.2107 40.18C11.2107 40.24 11.1957 40.27 11.1657 40.27C10.7557 40.27 10.4357 40.265 10.2057 40.255L8.90066 40.24L7.86566 40.255C7.67566 40.265 7.42066 40.27 7.10066 40.27C7.07066 40.27 7.05566 40.24 7.05566 40.18C7.05566 40.12 7.07066 40.09 7.10066 40.09C7.46066 40.09 7.72066 40.065 7.88066 40.015C8.04066 39.965 8.15066 39.87 8.21066 39.73C8.27066 39.58 8.30066 39.355 8.30066 39.055V32.11C8.30066 31.81 8.27066 31.59 8.21066 31.45C8.15066 31.31 8.03566 31.215 7.86566 31.165C7.70566 31.105 7.45066 31.075 7.10066 31.075C7.07066 31.075 7.05566 31.045 7.05566 30.985C7.05566 30.925 7.07066 30.895 7.10066 30.895L7.85066 30.91C8.29066 30.93 8.63566 30.94 8.88566 30.94C9.12566 30.94 9.41066 30.925 9.74066 30.895C9.86066 30.895 10.0457 30.89 10.2957 30.88C10.5557 30.86 10.7807 30.85 10.9707 30.85C11.9107 30.85 12.6657 31.06 13.2357 31.48C13.8057 31.89 14.0907 32.515 14.0907 33.355C14.0907 34.005 13.9257 34.555 13.5957 35.005C13.2757 35.455 12.8607 35.79 12.3507 36.01C11.8507 36.23 11.3307 36.34 10.7907 36.34C10.5007 36.34 10.2607 36.315 10.0707 36.265C10.0407 36.265 10.0257 36.24 10.0257 36.19C10.0257 36.16 10.0307 36.13 10.0407 36.1C10.0607 36.07 10.0807 36.06 10.1007 36.07C10.2607 36.11 10.4357 36.13 10.6257 36.13C11.2257 36.13 11.7307 35.915 12.1407 35.485C12.5507 35.055 12.7557 34.435 12.7557 33.625C12.7557 32.835 12.5557 32.22 12.1557 31.78C11.7557 31.33 11.2257 31.105 10.5657 31.105C10.2557 31.105 10.0307 31.13 9.89066 31.18C9.75066 31.22 9.65066 31.315 9.59066 31.465C9.53066 31.605 9.50066 31.83 9.50066 32.14V38.995Z" fill="black"/>
<path d="M23.5991 38.995C23.5991 39.275 23.6241 39.48 23.6741 39.61C23.7341 39.73 23.8391 39.815 23.9891 39.865C24.1391 39.905 24.3741 39.925 24.6941 39.925H25.9691C26.5991 39.925 27.1191 39.74 27.5291 39.37C27.9491 38.99 28.2291 38.48 28.3691 37.84C28.3691 37.81 28.3941 37.8 28.4441 37.81C28.5041 37.81 28.5341 37.825 28.5341 37.855C28.4441 38.735 28.3991 39.465 28.3991 40.045C28.3991 40.125 28.3791 40.185 28.3391 40.225C28.3091 40.255 28.2541 40.27 28.1741 40.27H21.1841C21.1641 40.27 21.1541 40.24 21.1541 40.18C21.1541 40.12 21.1641 40.09 21.1841 40.09C21.5441 40.09 21.8091 40.065 21.9791 40.015C22.1491 39.965 22.2641 39.87 22.3241 39.73C22.3841 39.58 22.4141 39.355 22.4141 39.055V32.11C22.4141 31.81 22.3841 31.59 22.3241 31.45C22.2641 31.31 22.1491 31.215 21.9791 31.165C21.8091 31.105 21.5441 31.075 21.1841 31.075C21.1641 31.075 21.1541 31.045 21.1541 30.985C21.1541 30.925 21.1641 30.895 21.1841 30.895L21.9341 30.91C22.3741 30.93 22.7291 30.94 22.9991 30.94C23.2691 30.94 23.6241 30.93 24.0641 30.91L24.8141 30.895C24.8341 30.895 24.8441 30.925 24.8441 30.985C24.8441 31.045 24.8341 31.075 24.8141 31.075C24.4541 31.075 24.1891 31.105 24.0191 31.165C23.8591 31.215 23.7491 31.315 23.6891 31.465C23.6291 31.605 23.5991 31.825 23.5991 32.125V38.995Z" fill="black"/>
<path d="M35.3908 40.27C35.3608 40.27 35.3458 40.24 35.3458 40.18C35.3458 40.12 35.3608 40.09 35.3908 40.09C35.7508 40.09 36.0108 40.065 36.1708 40.015C36.3408 39.965 36.4558 39.87 36.5158 39.73C36.5758 39.58 36.6058 39.355 36.6058 39.055V32.11C36.6058 31.81 36.5758 31.59 36.5158 31.45C36.4558 31.31 36.3408 31.215 36.1708 31.165C36.0108 31.105 35.7508 31.075 35.3908 31.075C35.3608 31.075 35.3458 31.045 35.3458 30.985C35.3458 30.925 35.3608 30.895 35.3908 30.895H41.5108C41.6108 30.895 41.6608 30.94 41.6608 31.03L41.6908 32.92C41.6908 32.95 41.6608 32.97 41.6008 32.98C41.5508 32.98 41.5208 32.965 41.5108 32.935C41.4408 32.385 41.2458 31.965 40.9258 31.675C40.6058 31.385 40.1858 31.24 39.6658 31.24H38.9008C38.4608 31.24 38.1658 31.305 38.0158 31.435C37.8658 31.565 37.7908 31.81 37.7908 32.17V38.995C37.7908 39.355 37.8558 39.6 37.9858 39.73C38.1258 39.86 38.4008 39.925 38.8108 39.925H39.8008C40.3608 39.925 40.8258 39.76 41.1958 39.43C41.5758 39.09 41.8358 38.61 41.9758 37.99C41.9758 37.97 41.9958 37.96 42.0358 37.96C42.0658 37.96 42.0908 37.97 42.1108 37.99C42.1408 38 42.1558 38.01 42.1558 38.02C42.0558 38.74 42.0058 39.415 42.0058 40.045C42.0058 40.125 41.9908 40.185 41.9608 40.225C41.9308 40.255 41.8708 40.27 41.7808 40.27H35.3908ZM40.9408 36.82C40.9408 36.39 40.8158 36.075 40.5658 35.875C40.3258 35.665 39.9408 35.56 39.4108 35.56H37.2208V35.215H39.4408C39.9508 35.215 40.3258 35.13 40.5658 34.96C40.8058 34.78 40.9258 34.505 40.9258 34.135C40.9258 34.115 40.9508 34.105 41.0008 34.105C41.0608 34.105 41.0908 34.115 41.0908 34.135L41.0758 35.395L41.0908 36.07C41.1108 36.39 41.1208 36.64 41.1208 36.82C41.1208 36.84 41.0908 36.85 41.0308 36.85C40.9708 36.85 40.9408 36.84 40.9408 36.82Z" fill="black"/>
</svg>
